<?xml version="1.0" encoding="utf-8"?>
<svg width="500" height="500" viewBox="0 0 500 500" fill="none" xmlns="http://www.w3.org/2000/svg">
  <g clip-path="url(#clip0_6_56)">
    <path fill-rule="evenodd" clip-rule="evenodd" d="M36 0H464C483.9 0 500 16.1 500 36V464C500 483.9 483.9 500 464 500H36C16.1 500 0 483.9 0 464V36C0 16.1 16.1 0 36 0Z" fill="#03A9F4"/>
    <path fill-rule="evenodd" clip-rule="evenodd" d="M 397.1 420 L 332.606 420 L 332.606 412.228 L 318.375 412.228 C 303.454 400.857 292.382 387.812 286.374 371.933 L 319.431 371.933 L 319.431 356.776 C 329.685 353.144 339.943 346.645 350.199 337.725 C 339.91 328.625 329.827 323.574 319.431 321.139 L 319.431 305.676 L 198.128 305.676 L 198.128 316.239 L 151.96 316.239 C 160.266 336.392 178.56 350.216 198.128 354.812 L 198.128 371.933 L 228.538 371.933 C 222.246 387.787 211.14 400.849 198.175 412.226 L 184.952 412.226 L 184.952 420 L 104.5 420 C 100.2 420 96.7 416.5 96.7 412.2 L 96.7 279 L 61.3 279 C 56.1 279 52 274.8 52 269.7 C 52 267.2 53 264.9 54.7 263.1 L 242.2 73.4 C 246.7 68.8 254.1 68.8 258.7 73.3 L 258.8 73.4 L 356.7 172 L 356.7 153.8 C 356.7 149.5 360.2 146 364.5 146 L 397 146 C 401.3 146 404.8 149.5 404.8 153.8 L 404.8 220.7 L 446.4 263.1 C 450 266.8 450 272.7 446.3 276.3 C 444.6 278 442.2 279 439.8 279 L 404.9 279 L 404.9 412.2 C 404.9 416.5 401.4 420 397.1 420 Z M 322.169 200.672 L 322.168 200.677 L 322.171 200.672 Z M 282.476 263.799 L 278.192 246.824 L 262.501 293.026 L 295.036 277.771 L 295.151 293.059 L 361.117 266.606 L 324.344 265.584 L 349.156 229.915 L 311.004 250.298 L 322.168 200.677 Z M 210.681 220.616 L 194.062 228.096 L 202.825 256.999 L 137.233 293.944 L 143.757 308.42 L 209.349 271.457 L 225.138 297.146 L 250.745 285.623 L 239.662 249.095 Z" fill="white" style="filter: drop-shadow(rgba(0, 0, 0, 0.22) 0px 0px 13px);"/>
    <g class="" style="" transform="matrix(1.085445, 0, 0, 1.085445, 14.749019, -24.883358)"/>
  </g>
  <defs>
    <clipPath id="clip0_6_56">
      <rect width="500" height="500" fill="white"/>
    </clipPath>
  </defs>
</svg>