<?xml version="1.0" encoding="utf-8"?>
<svg width="500" height="500" viewBox="0 0 500 500" fill="none" xmlns="http://www.w3.org/2000/svg">
  <g clip-path="url(#clip0_6_56)">
    <path fill-rule="evenodd" clip-rule="evenodd" d="M36 0H464C483.9 0 500 16.1 500 36V464C500 483.9 483.9 500 464 500H36C16.1 500 0 483.9 0 464V36C0 16.1 16.1 0 36 0Z" fill="#03A9F4"/>
    <path fill-rule="evenodd" clip-rule="evenodd" d="M 397.1 420 L 104.5 420 C 100.2 420 96.7 416.5 96.7 412.2 L 96.7 279 L 61.3 279 C 56.1 279 52 274.8 52 269.7 C 52 267.2 53 264.9 54.7 263.1 L 242.2 73.4 C 246.7 68.8 254.1 68.8 258.7 73.3 L 258.8 73.4 L 356.7 172 L 356.7 153.8 C 356.7 149.5 360.2 146 364.5 146 L 397 146 C 401.3 146 404.8 149.5 404.8 153.8 L 404.8 220.7 L 446.4 263.1 C 450 266.8 450 272.7 446.3 276.3 C 444.6 278 442.2 279 439.8 279 L 404.9 279 L 404.9 412.2 C 404.9 416.5 401.4 420 397.1 420 Z" fill="white"/>
    <g class="" style="" transform="matrix(1.085445, 0, 0, 1.085445, 14.749019, -24.883358)">
      <path d="M 184.031 229.696 L 168.721 236.587 L 176.794 263.215 L 116.365 297.252 L 122.376 310.588 L 182.804 276.535 L 197.35 300.202 L 220.942 289.586 L 210.731 255.933 L 184.031 229.696 Z M 168.944 304.537 L 168.944 314.27 L 126.41 314.27 C 134.062 332.836 150.916 345.572 168.944 349.806 L 168.944 365.579 L 196.96 365.579 C 191.163 380.185 180.931 392.219 168.987 402.701 L 156.805 402.701 L 156.805 411.641 L 292.836 411.641 L 292.836 402.702 L 279.725 402.702 C 265.978 392.227 255.778 380.208 250.243 365.579 L 280.698 365.579 L 280.698 351.616 C 290.145 348.269 299.595 342.282 309.044 334.064 C 299.565 325.681 290.275 321.027 280.698 318.784 L 280.698 304.538 L 168.944 304.538 L 168.944 304.537 Z" fill="#03a9f4" fill-opacity="1" style=""/>
    </g>
    <g clip-path="url(#clip-1)" transform="matrix(0.36609, -0.072114, 0.072114, 0.36609, 189.170807, 180.2771)" style="">
      <path fill-rule="evenodd" clip-rule="evenodd" d="M 257.5 420 L 286.6 391 L 313.4 391 C 315.5 396.8 321 401 327.6 401 C 335.9 401 342.6 394.3 342.6 386 C 342.6 377.7 335.9 371 327.6 371 C 321.1 371 315.5 375.2 313.4 381 L 282.4 381 L 255.4 407.9 L 255.4 375 L 287.5 342.9 L 339.4 342.9 C 341.5 348.7 347 352.9 353.6 352.9 C 361.9 352.9 368.6 346.2 368.6 337.9 C 368.6 329.6 361.9 322.9 353.6 322.9 C 347.1 322.9 341.5 327.1 339.4 332.9 L 297.5 332.9 L 327.5 303 L 327.5 278 L 349.1 256.5 C 351.1 257.4 353.3 258 355.6 258 C 363.9 258 370.6 251.3 370.6 243 C 370.6 234.7 363.9 228 355.6 228 C 347.3 228 340.6 234.7 340.6 243 C 340.6 245.3 341.1 247.5 342.1 249.5 L 327.6 264 L 327.6 218.2 C 333.4 216.1 337.6 210.6 337.6 204.1 C 337.6 195.8 330.9 189.1 322.6 189.1 C 314.3 189.1 307.6 195.8 307.6 204.1 C 307.6 210.6 311.8 216.2 317.6 218.2 L 317.6 264 L 303.1 249.5 C 304 247.5 304.6 245.3 304.6 243 C 304.6 234.7 297.9 228 289.6 228 C 281.3 228 274.6 234.7 274.6 243 C 274.6 251.3 281.3 258 289.6 258 C 291.9 258 294.1 257.5 296.1 256.5 L 317.7 278 L 317.7 298.9 L 290.7 325.9 L 290.7 306.1 C 296.5 304 300.7 298.5 300.7 292 C 300.7 283.7 294 277 285.7 277 C 277.4 277 270.7 283.7 270.7 292 C 270.7 298.5 274.9 304.1 280.7 306.1 L 280.7 335.9 L 255.7 360.9 L 255.7 214.1 L 276.3 193.6 C 278.3 194.5 280.5 195.1 282.8 195.1 C 291.1 195.1 297.8 188.4 297.8 180.1 C 297.8 171.8 291.1 165.1 282.8 165.1 C 274.5 165.1 267.8 171.8 267.8 180.1 C 267.8 182.4 268.3 184.6 269.3 186.6 L 250.8 205.1 L 232.3 186.6 C 233.2 184.6 233.8 182.4 233.8 180.1 C 233.8 171.8 227.1 165.1 218.8 165.1 C 210.5 165.1 203.8 171.8 203.8 180.1 C 203.8 188.4 210.5 195.1 218.8 195.1 C 221.1 195.1 223.3 194.6 225.3 193.6 L 245.9 214.1 L 245.9 319 L 209.8 283 L 209.8 254.2 C 215.6 252.1 219.8 246.6 219.8 240.1 C 219.8 231.8 213.1 225.1 204.8 225.1 C 196.5 225.1 189.8 231.8 189.8 240.1 C 189.8 246.6 194 252.2 199.8 254.2 L 199.8 273 L 171.7 245 L 171.7 217.2 C 177.5 215.1 181.7 209.6 181.7 203.1 C 181.7 194.8 175 188.1 166.7 188.1 C 158.4 188.1 151.7 194.8 151.7 203.1 C 151.7 209.6 155.9 215.2 161.7 217.2 L 161.7 249.1 L 192.7 280 L 174.9 280 C 172.8 274.2 167.3 270 160.7 270 C 152.4 270 145.7 276.7 145.7 285 C 145.7 293.3 152.4 300 160.7 300 C 167.2 300 172.8 295.8 174.9 290 L 202.7 290 L 245.8 333.1 L 245.8 408 L 222.8 385 L 222.8 356.2 C 228.6 354.1 232.8 348.6 232.8 342.1 C 232.8 333.8 226.1 327.1 217.8 327.1 C 209.5 327.1 202.8 333.8 202.8 342.1 C 202.8 348.6 207 354.2 212.8 356.2 L 212.8 375 L 179.3 341.5 C 180.2 339.5 180.8 337.3 180.8 335 C 180.8 326.7 174.1 320 165.8 320 C 157.5 320 150.8 326.7 150.8 335 C 150.8 343.3 157.5 350 165.8 350 C 168.1 350 170.3 349.5 172.3 348.5 L 205.8 382 L 188 382 C 185.9 376.2 180.4 372 173.8 372 C 165.5 372 158.8 378.7 158.8 387 C 158.8 395.3 165.5 402 173.8 402 C 180.3 402 185.9 397.8 188 392 L 215.8 392 L 243.9 420 L 257.5 420 Z M 173.3 393 C 170 393 167.3 390.3 167.3 387 C 167.3 383.7 170 381 173.3 381 C 176.6 381 179.3 383.7 179.3 387 C 179.3 390.3 176.6 393 173.3 393 Z M 217.4 348 C 214.1 348 211.4 345.3 211.4 342 C 211.4 338.7 214.1 336 217.4 336 C 220.7 336 223.4 338.7 223.4 342 C 223.4 345.3 220.7 348 217.4 348 Z M 165.3 341 C 162 341 159.3 338.3 159.3 335 C 159.3 331.7 162 329 165.3 329 C 168.6 329 171.3 331.7 171.3 335 C 171.3 338.3 168.6 341 165.3 341 Z M 160.3 291 C 157 291 154.3 288.3 154.3 285 C 154.3 281.7 157 279 160.3 279 C 163.6 279 166.3 281.7 166.3 285 C 166.3 288.3 163.6 291 160.3 291 Z M 285.5 298 C 282.2 298 279.5 295.3 279.5 292 C 279.5 288.7 282.2 286 285.5 286 C 288.8 286 291.5 288.7 291.5 292 C 291.5 295.3 288.8 298 285.5 298 Z M 353.6 344 C 350.3 344 347.6 341.3 347.6 338 C 347.6 334.7 350.3 332 353.6 332 C 356.9 332 359.6 334.7 359.6 338 C 359.6 341.3 356.9 344 353.6 344 Z M 327.6 392 C 324.3 392 321.6 389.3 321.6 386 C 321.6 382.7 324.3 380 327.6 380 C 330.9 380 333.6 382.7 333.6 386 C 333.6 389.3 330.9 392 327.6 392 Z M 355.6 249 C 352.3 249 349.6 246.3 349.6 243 C 349.6 239.7 352.3 237 355.6 237 C 358.9 237 361.6 239.7 361.6 243 C 361.6 246.3 358.9 249 355.6 249 Z M 322.6 210 C 319.3 210 316.6 207.3 316.6 204 C 316.6 200.7 319.3 198 322.6 198 C 325.9 198 328.6 200.7 328.6 204 C 328.6 207.3 325.9 210 322.6 210 Z M 282.5 186 C 279.2 186 276.5 183.3 276.5 180 C 276.5 176.7 279.2 174 282.5 174 C 285.8 174 288.5 176.7 288.5 180 C 288.5 183.3 285.8 186 282.5 186 Z M 218.4 186 C 215.1 186 212.4 183.3 212.4 180 C 212.4 176.7 215.1 174 218.4 174 C 221.7 174 224.4 176.7 224.4 180 C 224.4 183.3 221.7 186 218.4 186 Z M 166.3 209 C 163 209 160.3 206.3 160.3 203 C 160.3 199.7 163 197 166.3 197 C 169.6 197 172.3 199.7 172.3 203 C 172.3 206.3 169.6 209 166.3 209 Z M 204.3 246 C 201 246 198.3 243.3 198.3 240 C 198.3 236.7 201 234 204.3 234 C 207.6 234 210.3 236.7 210.3 240 C 210.4 243.3 207.7 246 204.3 246 Z M 289.5 249 C 286.2 249 283.5 246.3 283.5 243 C 283.5 239.7 286.2 237 289.5 237 C 292.8 237 295.5 239.7 295.5 243 C 295.5 246.3 292.8 249 289.5 249 Z" style="fill-rule: evenodd; paint-order: stroke; fill: rgb(3, 168, 244);" transform="matrix(0.695532, 0.718495, -0.718495, 0.695532, 288.794315, -96.407381)"/>
    </g>
  </g>
  <defs>
    <clipPath id="clip0_6_56">
      <rect width="500" height="500" fill="white"/>
    </clipPath>
    <clipPath id="clip-1">
      <rect width="500" height="500" fill="white"/>
    </clipPath>
  </defs>
</svg>